<svg viewBox="322.0473 270.8333 331.9053 45.3334" width="5000" height="682.926726388521" xmlns="http://www.w3.org/2000/svg" xmlns:xlink="http://www.w3.org/1999/xlink" preserveAspectRatio="none"><defs></defs><style>.companyName {fill:#262626;fill-opacity:1;}.icon1 {fill:#262626;fill-opacity:1;}.icon2 {fill:#FF8557;fill-opacity:1;}.icon3 {fill:#A6801D;fill-opacity:1;}</style><g opacity="1" transform="rotate(0 363.3082 292.6841)">
<svg width="290.6444" height="17.4826" x="363.3082" y="292.6841" version="1.1" preserveAspectRatio="none" viewBox="2.92 -25.8 434.24 26.12">
  <g transform="matrix(1 0 0 1 0 0)" class="companyName"><path d="M25.04-25.40L24.36-22.36L17.92-22.36L13.16 0L4.52 0L9.28-22.36L2.92-22.36L3.64-25.40L25.04-25.40Z M49.88-25.40L44.40 0L35.76 0L38.16-11.32L33.24-11.32L30.84 0L22.20 0L27.60-25.40L36.28-25.40L33.92-14.36L38.80-14.36L41.16-25.40L49.88-25.40Z M48.84 0L54.24-25.40L71.08-25.40L70.44-22.36L62.28-22.36L60.60-14.64L67.44-14.64L66.80-11.64L59.96-11.64L58.12-3.08L66.28-3.08L65.68 0L48.84 0Z M80.44 0L68.96 0L74.36-25.40L85.12-25.40Q87.60-25.40 89.46-24.90Q91.32-24.40 92.54-23.24Q93.76-22.08 94.38-20.20Q95-18.32 95-15.60L95-15.60Q95-12.68 94.26-9.88Q93.52-7.08 91.80-4.88Q90.08-2.68 87.30-1.34Q84.52 0 80.44 0L80.44 0ZM78.20-2.80L79.92-2.80Q81.24-2.80 82.26-3.90Q83.28-5 84.02-6.70Q84.76-8.40 85.26-10.46Q85.76-12.52 86.06-14.44Q86.36-16.36 86.50-17.88Q86.64-19.40 86.64-20.04L86.64-20.04Q86.64-21.28 86.14-21.98Q85.64-22.68 84.40-22.68L84.40-22.68L82.48-22.68L78.20-2.80Z M109.52-25.40L104.08 0L95.44 0L100.84-25.40L109.52-25.40Z M108.48 0L113.88-25.40L130.72-25.40L130.08-22.36L121.92-22.36L120.24-14.64L127.08-14.64L126.44-11.64L119.60-11.64L117.76-3.08L125.92-3.08L125.32 0L108.48 0Z M150.80-18.04L144.16-18.04Q144.28-18.64 144.28-19.68L144.28-19.68Q144.28-20.28 144.20-20.86Q144.12-21.44 143.92-21.90Q143.72-22.36 143.32-22.62Q142.92-22.88 142.28-22.88L142.28-22.88Q141.56-22.88 140.96-22.56Q140.36-22.24 139.90-21.74Q139.44-21.24 139.18-20.58Q138.92-19.92 138.92-19.20L138.92-19.20Q138.92-18.16 139.46-17.60Q140.00-17.04 140.88-16.68Q141.76-16.32 142.88-16.08Q144.00-15.84 145.20-15.52L145.20-15.52Q146.20-15.24 147.20-14.80Q148.20-14.36 148.98-13.62Q149.76-12.88 150.24-11.70Q150.72-10.52 150.72-8.76L150.72-8.76Q150.72-6.24 149.72-4.52Q148.72-2.80 146.96-1.72Q145.20-0.64 142.78-0.16Q140.36 0.32 137.52 0.32L137.52 0.32Q134.64 0.32 132.82-0.06Q131.00-0.44 129.96-0.88L129.96-0.88Q128.72-1.40 128.12-2.08L128.12-2.08L129.48-7.56L136.52-7.56Q136.48-7.20 136.44-6.58Q136.40-5.96 136.40-5.60L136.40-5.60Q136.40-5.12 136.52-4.60Q136.64-4.08 136.90-3.64Q137.16-3.20 137.64-2.92Q138.12-2.64 138.84-2.64L138.84-2.64Q139.64-2.64 140.26-3Q140.88-3.36 141.30-3.90Q141.72-4.44 141.94-5.10Q142.16-5.76 142.16-6.40L142.16-6.40Q142.16-7.28 141.74-7.88Q141.32-8.48 140.60-8.90Q139.88-9.32 138.94-9.62Q138.00-9.92 137.00-10.24L137.00-10.24Q136.04-10.52 134.98-10.92Q133.92-11.32 133.04-12.04Q132.16-12.76 131.58-13.86Q131.00-14.96 131.00-16.68L131.00-16.68Q131.00-19.24 132.30-20.98Q133.60-22.72 135.58-23.80Q137.56-24.88 139.92-25.34Q142.28-25.80 144.40-25.80L144.40-25.80Q147.20-25.80 149.22-25.14Q151.24-24.48 152.28-23.60L152.28-23.60L150.80-18.04Z M151.88 0L157.28-25.40L174.12-25.40L173.48-22.36L165.32-22.36L163.64-14.64L170.48-14.64L169.84-11.64L163.00-11.64L161.16-3.08L169.32-3.08L168.72 0L151.88 0Z M172.00 0L177.40-25.40L186.08-25.40L181.36-3.36L189.48-3.36L188.80 0L172.00 0Z M226.08-25.40L220.64 0L211.76 0L215.44-17.28L205.96 0L200.52 0L198.72-17.88L194.88 0L191.28 0L196.68-25.40L206.88-25.40L208.12-11.08L215.80-25.40L226.08-25.40Z M244.44-25.40L247.20 0L237.84 0L237.28-6.36L229.88-6.36L227.04 0L223.16 0L234.96-25.40L244.44-25.40ZM236.08-20.16L231.20-9.28L237.00-9.28L236.08-20.16Z M274.04-19.36L274.04-19.36Q274.04-17 272.72-15Q271.40-13 268.36-11.96L268.36-11.96L273.00 0L264.08 0L260.56-11.08L260.12-11.08L257.76 0L249.12 0L254.52-25.40L265.04-25.40Q266.88-25.40 268.52-25.18Q270.16-24.96 271.38-24.30Q272.60-23.64 273.32-22.46Q274.04-21.28 274.04-19.36ZM260.64-13.64L262.52-13.64Q263.56-13.64 264.30-14.34Q265.04-15.04 265.50-16.04Q265.96-17.04 266.16-18.18Q266.36-19.32 266.36-20.16L266.36-20.16Q266.36-21.20 266.00-21.94Q265.64-22.68 264.44-22.68L264.44-22.68L262.64-22.68L260.64-13.64Z M288.52-25.40L286.16-14.36L296.04-25.44L300.56-25.44L291.60-15.72L297.68 0L288.96 0L285.44-11.16L283.08 0L274.44 0L279.84-25.40L288.52-25.40Z M298.76 0L304.16-25.40L321.00-25.40L320.36-22.36L312.20-22.36L310.52-14.64L317.36-14.64L316.72-11.64L309.88-11.64L308.04-3.08L316.20-3.08L315.60 0L298.76 0Z M343.92-25.40L343.24-22.36L336.80-22.36L332.04 0L323.40 0L328.16-22.36L321.80-22.36L322.52-25.40L343.92-25.40Z M347.28-3.52L347.28-3.52Q347.28-2.60 346.90-1.88Q346.52-1.16 345.90-0.68Q345.28-0.20 344.48 0.06Q343.68 0.32 342.80 0.32L342.80 0.32Q341.28 0.32 340.22-0.50Q339.16-1.32 339.16-3.08L339.16-3.08Q339.16-4 339.52-4.72Q339.88-5.44 340.48-5.92Q341.08-6.40 341.86-6.66Q342.64-6.92 343.48-6.92L343.48-6.92Q345.12-6.92 346.20-6.10Q347.28-5.28 347.28-3.52Z M373.56-9.72L371.96-2.16Q370.96-1.68 369.90-1.22Q368.84-0.76 367.64-0.42Q366.44-0.08 365.02 0.12Q363.60 0.32 361.92 0.32L361.92 0.32Q356.56 0.32 353.66-2.08Q350.76-4.48 350.76-10.08L350.76-10.08Q350.76-13.32 351.76-16.18Q352.76-19.04 354.72-21.18Q356.68-23.32 359.56-24.56Q362.44-25.80 366.16-25.80L366.16-25.80Q367.92-25.80 369.38-25.56Q370.84-25.32 372.02-24.94Q373.20-24.56 374.14-24.12Q375.08-23.68 375.84-23.28L375.84-23.28L374.40-15.84L367.20-15.84Q367.24-16.24 367.30-16.88Q367.36-17.52 367.40-18.18Q367.44-18.84 367.48-19.48Q367.52-20.12 367.52-20.56L367.52-20.56Q367.52-20.88 367.48-21.30Q367.44-21.72 367.28-22.12Q367.12-22.52 366.78-22.78Q366.44-23.04 365.88-23.04L365.88-23.04Q364.84-23.04 363.98-22.18Q363.12-21.32 362.44-19.90Q361.76-18.48 361.24-16.68Q360.72-14.88 360.38-13.02Q360.04-11.16 359.86-9.36Q359.68-7.56 359.68-6.20L359.68-6.20Q359.68-5.80 359.72-5.20Q359.76-4.60 359.96-4.04Q360.16-3.48 360.58-3.08Q361-2.68 361.72-2.68L361.72-2.68Q362.96-2.68 364.12-4.22Q365.28-5.76 366.16-9.72L366.16-9.72L373.56-9.72Z M391.40-25.80L391.40-25.80Q394.84-25.80 396.98-24.92Q399.12-24.04 400.36-22.20L400.36-22.20Q401.16-20.96 401.60-19.40Q402.04-17.84 402.04-15.80L402.04-15.80Q402.04-14.04 401.72-12.28Q401.40-10.52 400.82-8.90Q400.24-7.28 399.42-5.86Q398.60-4.44 397.60-3.36L397.60-3.36Q395.72-1.32 393.26-0.50Q390.80 0.32 387.20 0.32L387.20 0.32Q383.72 0.32 381.60-0.40Q379.48-1.12 378.24-2.72L378.24-2.72Q377.36-3.84 376.86-5.56Q376.36-7.28 376.36-9.88L376.36-9.88Q376.36-14.32 377.94-17.82Q379.52-21.32 382.44-23.36L382.44-23.36Q384.20-24.60 386.36-25.20Q388.52-25.80 391.40-25.80ZM386.88-2.48L386.88-2.48Q387.80-2.48 388.62-3.30Q389.44-4.12 390.14-5.50Q390.84-6.88 391.42-8.64Q392-10.40 392.40-12.28Q392.80-14.16 393.02-16.02Q393.24-17.88 393.24-19.40L393.24-19.40Q393.24-21.48 392.82-22.26Q392.40-23.04 391.60-23.04L391.60-23.04Q390.68-23.04 389.84-22.24Q389-21.44 388.26-20.10Q387.52-18.76 386.94-17.02Q386.36-15.28 385.94-13.44Q385.52-11.60 385.30-9.80Q385.08-8 385.08-6.48L385.08-6.48Q385.08-4.20 385.58-3.34Q386.08-2.48 386.88-2.48Z M437.16-25.40L431.72 0L422.84 0L426.52-17.28L417.04 0L411.60 0L409.80-17.88L405.96 0L402.36 0L407.76-25.40L417.96-25.40L419.20-11.08L426.88-25.40L437.16-25.40Z"/></g>
</svg>
</g><g opacity="1" transform="rotate(0 322.0473 270.8333)">
<svg width="35.4783" height="45.3334" x="322.0473" y="270.8333" version="1.1" preserveAspectRatio="none" viewBox="7 5 18 23">
  <g transform="matrix(1 0 0 1 0 0)" class="icon1"><g transform="translate(0,-1020.3622)"><path style="color:#000000;font-style:normal;font-variant:normal;font-weight:normal;font-stretch:normal;font-size:medium;line-height:normal;text-indent:0;text-align:start;text-decoration:none;text-decoration-line:none;text-decoration-style:solid;text-decoration-color:#000000;letter-spacing:normal;word-spacing:normal;text-transform:none;direction:ltr;block-progression:tb;writing-mode:lr-tb;baseline-shift:baseline;text-anchor:start;white-space:normal;clip-rule:nonzero;display:inline;overflow:visible;visibility:visible;opacity:1;isolation:auto;mix-blend-mode:normal;color-interpolation:sRGB;color-interpolation-filters:linearRGB;solid-color:#000000;solid-opacity:1;fill-rule:nonzero;stroke-width:1;stroke-linecap:butt;stroke-linejoin:round;stroke-miterlimit:4;stroke-dasharray:none;stroke-dashoffset:0;color-rendering:auto;image-rendering:auto;shape-rendering:auto;text-rendering:auto;enable-background:accumulate" d="M 16 5 A 0.50005 0.50005 0 0 0 15.640625 5.1523438 C 15.640625 5.1523438 13.499155 7.363075 11.353516 10.171875 C 9.2078755 12.980675 7 16.326669 7 18.980469 C 7 23.955669 11.034719 28 16 28 C 20.965281 28 25 23.955669 25 18.980469 C 25 16.326669 22.792124 12.980675 20.646484 10.171875 C 18.500845 7.363075 16.359375 5.1523438 16.359375 5.1523438 A 0.50005 0.50005 0 0 0 16 5 z M 16 6.2695312 C 16.314602 6.5982313 17.928517 8.2593969 19.853516 10.779297 C 21.957876 13.534097 24 16.928769 24 18.980469 C 24 23.416469 20.423559 27 16 27 C 11.576441 27 8 23.416469 8 18.980469 C 8 16.928769 10.042124 13.534097 12.146484 10.779297 C 14.071483 8.2593969 15.685398 6.5982313 16 6.2695312 z M 22 19 C 21.999987 20.7871 21.047688 22.436478 19.5 23.330078 L 20 24.197266 C 21.855699 23.125866 22.999985 21.1428 23 19 L 22 19 z " transform="translate(0,1020.3622)"></path></g></g>
</svg>
</g></svg>